<svg id="visual" viewBox="0 0 1920 1080" width="1920" height="1080" xmlns="http://www.w3.org/2000/svg" xmlns:xlink="http://www.w3.org/1999/xlink" version="1.1"><path d="M0 476L640 249L1280 98L1920 174L1920 0L1280 0L640 0L0 0Z" fill="#0c0c0c"></path><path d="M0 530L640 357L1280 282L1920 228L1920 172L1280 96L640 247L0 474Z" fill="#1c1109"></path><path d="M0 800L640 692L1280 768L1920 530L1920 226L1280 280L640 355L0 528Z" fill="#271406"></path><path d="M0 973L640 746L1280 843L1920 800L1920 528L1280 766L640 690L0 798Z" fill="#321703"></path><path d="M0 1081L640 1081L1280 1081L1920 1081L1920 798L1280 841L640 744L0 971Z" fill="#3e1900"></path></svg>